<svg viewBox="0 0 49.059 48.70935960591133" xmlns="http://www.w3.org/2000/svg" style="max-height: 500px" width="49.059" height="48.70935960591133">
<g stroke-width="0.3" stroke-opacity="0.00" stroke="#000000" fill-opacity="0.0" fill="None"><path d="M 0.00 17.00 &#10;C 0.50 17.00 1.00 17.00 1.00 17.00&#10;C 1.96 9.29 9.34 2.22 17.00 1.00&#10;C 17.06 0.99 17.00 0.00 17.00 0.00&#10;L 0.00 0.00&#10;L 0.00 17.00 Z"/>
</g>
<g stroke-width="0.3" stroke-opacity="0.46" stroke="#F07934" fill-opacity="0.0" fill="None"><path d="M 17.00 1.00 &#10;C 18.29 0.79 20.49 1.71 21.00 0.00&#10;L 17.00 0.00&#10;C 17.00 0.00 17.06 0.99 17.00 1.00 Z"/>
</g>
<g stroke-width="0.3" stroke-opacity="0.95" stroke="#F17C37" fill-opacity="0.0" fill="None"><path d="M 17.00 1.00 &#10;C 9.34 2.22 1.96 9.29 1.00 17.00&#10;C 0.84 18.29 1.68 20.49 0.00 21.00&#10;L 0.00 27.00&#10;C 1.28 27.22 1.42 29.81 0.00 30.00&#10;L 0.00 31.00&#10;C 1.93 35.77 6.86 45.38 14.00 47.00&#10;C 14.78 46.76 16.18 46.99 17.00 47.00&#10;C 18.28 47.02 20.49 46.42 21.00 48.00&#10;L 27.00 48.00&#10;C 27.74 46.61 31.32 46.35 32.00 48.00&#10;L 34.00 48.00&#10;C 53.28 38.80 53.88 6.64 31.00 0.00&#10;L 30.00 0.00&#10;C 29.78 1.28 27.19 1.42 27.00 0.00&#10;L 21.00 0.00&#10;C 20.49 1.71 18.29 0.79 17.00 1.00&#10;M 39.00 36.00 &#10;C 36.00 36.00 33.00 36.00 30.00 36.00&#10;C 30.01 33.71 26.25 30.22 31.00 31.00&#10;C 29.69 26.66 26.75 22.44 24.00 19.00&#10;C 21.03 22.39 18.75 26.87 17.00 31.00&#10;C 20.60 31.99 23.00 28.93 24.00 26.00&#10;C 29.25 28.50 24.72 32.41 24.00 36.00&#10;C 19.00 36.00 14.00 36.00 9.00 36.00&#10;C 13.48 27.27 18.64 18.14 24.00 10.00&#10;C 29.44 18.17 34.72 27.13 39.00 36.00 Z"/>
</g>
<g stroke-width="0.3" stroke-opacity="0.58" stroke="#F07A34" fill-opacity="0.0" fill="None"><path d="M 30.00 0.00 &#10;L 27.00 0.00&#10;C 27.19 1.42 29.78 1.28 30.00 0.00 Z"/>
</g>
<g stroke-width="0.3" stroke-opacity="0.00" stroke="#000000" fill-opacity="0.0" fill="None"><path d="M 34.00 48.00 &#10;L 122.00 48.00&#10;C 119.80 45.62 121.09 43.29 122.00 40.00&#10;C 127.54 38.46 131.03 41.79 129.00 47.00&#10;C 128.00 47.11 126.27 46.53 126.00 48.00&#10;L 174.00 48.00&#10;C 174.00 47.50 174.00 47.00 174.00 47.00&#10;C 171.31 45.76 172.45 43.72 171.00 41.00&#10;C 174.48 38.56 176.22 43.16 179.00 40.00&#10;C 178.39 42.22 180.62 47.04 177.00 47.00&#10;C 176.42 47.23 174.97 46.74 175.00 48.00&#10;L 198.00 48.00&#10;C 193.90 41.32 204.42 35.97 204.00 46.00&#10;C 202.71 47.70 199.83 45.99 199.00 48.00&#10;L 237.00 48.00&#10;L 237.00 27.00&#10;C 233.58 27.21 228.79 27.72 229.00 23.00&#10;C 226.00 23.00 223.00 23.00 220.00 23.00&#10;C 220.26 28.18 214.57 26.96 211.00 27.00&#10;C 215.85 18.97 218.38 6.35 226.00 2.00&#10;C 228.68 9.86 232.87 17.89 237.00 25.00&#10;L 237.00 0.00&#10;L 31.00 0.00&#10;C 53.88 6.64 53.28 38.80 34.00 48.00&#10;M 79.00 2.00 &#10;C 83.01 11.58 87.11 19.67 92.00 27.00&#10;C 89.28 27.17 86.33 26.39 84.00 28.00&#10;C 84.07 21.86 77.35 22.88 73.00 23.00&#10;C 73.96 28.57 68.17 26.76 64.00 27.00&#10;C 70.25 18.88 71.14 7.18 79.00 2.00&#10;M 112.00 3.00 &#10;C 112.00 9.33 112.00 15.67 112.00 22.00&#10;C 116.00 22.00 120.00 22.00 124.00 22.00&#10;C 125.25 31.30 111.68 25.30 106.00 27.00&#10;C 108.35 19.52 100.36 1.93 112.00 3.00&#10;M 145.00 20.00 &#10;C 146.03 24.78 144.51 28.57 139.00 27.00&#10;C 139.00 19.00 139.00 11.00 139.00 3.00&#10;C 145.77 2.33 156.43 2.15 158.32 9.68 C 160.21 17.21 151.80 20.89 145.00 20.00&#10;M 180.00 3.00 &#10;C 180.00 6.33 180.00 9.67 180.00 13.00&#10;C 183.00 13.00 186.00 13.00 189.00 13.00&#10;C 188.68 9.66 189.84 5.93 188.00 3.00&#10;C 200.87 0.82 192.72 19.25 195.00 27.00&#10;C 188.14 29.22 188.59 22.82 189.00 18.00&#10;C 186.00 18.00 183.00 18.00 180.00 18.00&#10;C 180.00 21.00 180.00 24.00 180.00 27.00&#10;C 171.86 29.54 174.00 20.09 174.00 15.00 C 174.00 9.91 171.81 0.51 180.00 3.00&#10;M 102.00 40.00 &#10;C 98.77 43.91 103.21 44.65 105.00 47.00&#10;C 98.21 50.92 94.29 39.04 102.00 40.00&#10;M 153.00 40.00 &#10;C 153.60 42.57 153.29 44.56 155.00 47.00&#10;C 151.78 45.63 149.03 47.72 146.00 46.00&#10;C 147.65 43.20 148.82 38.90 153.00 40.00 Z"/>
</g>
<g stroke-width="0.3" stroke-opacity="0.82" stroke="#FEFEFB" fill-opacity="0.0" fill="None"><path d="M 79.00 2.00 &#10;C 71.14 7.18 70.25 18.88 64.00 27.00&#10;C 68.17 26.76 73.96 28.57 73.00 23.00&#10;C 77.35 22.88 84.07 21.86 84.00 28.00&#10;C 86.33 26.39 89.28 27.17 92.00 27.00&#10;C 87.11 19.67 83.01 11.58 79.00 2.00&#10;M 78.00 18.00 &#10;C 75.87 19.28 76.55 15.66 77.00 15.00&#10;C 78.41 12.95 81.26 18.13 78.00 18.00 Z"/>
</g>
<g stroke-width="0.3" stroke-opacity="0.82" stroke="#FEFEF9" fill-opacity="0.0" fill="None"><path d="M 237.00 27.00 &#10;L 237.00 25.00&#10;C 232.87 17.89 228.68 9.86 226.00 2.00&#10;C 218.38 6.35 215.85 18.97 211.00 27.00&#10;C 214.57 26.96 220.26 28.18 220.00 23.00&#10;C 223.00 23.00 226.00 23.00 229.00 23.00&#10;C 228.79 27.72 233.58 27.21 237.00 27.00&#10;M 224.00 16.00 &#10;C 224.50 16.00 225.67 15.76 226.00 16.00&#10;C 227.04 16.75 227.07 17.66 227.00 19.00&#10;C 226.04 18.89 221.03 19.52 223.00 18.00&#10;C 223.07 17.51 222.97 16.50 223.00 16.00&#10;C 223.08 14.47 223.12 13.29 224.00 12.00&#10;C 226.00 13.40 225.81 14.80 224.00 16.00 Z"/>
</g>
<g stroke-width="0.3" stroke-opacity="0.84" stroke="#FFFFFF" fill-opacity="0.0" fill="None"><path d="M 112.00 3.00 &#10;C 100.36 1.93 108.35 19.52 106.00 27.00&#10;C 111.68 25.30 125.25 31.30 124.00 22.00&#10;C 120.00 22.00 116.00 22.00 112.00 22.00&#10;C 112.00 15.67 112.00 9.33 112.00 3.00 Z"/>
</g>
<g stroke-width="0.3" stroke-opacity="0.82" stroke="#FFFEFD" fill-opacity="0.0" fill="None"><path d="M 145.00 20.00 &#10;C 151.80 20.89 160.21 17.21 158.32 9.68 C 156.43 2.15 145.77 2.33 139.00 3.00&#10;C 139.00 11.00 139.00 19.00 139.00 27.00&#10;C 144.51 28.57 146.03 24.78 145.00 20.00&#10;M 149.00 9.00 &#10;C 150.63 9.38 150.84 8.77 152.00 10.00&#10;C 154.98 13.17 147.62 16.32 145.00 15.00&#10;C 144.36 11.99 144.95 5.26 149.00 9.00 Z"/>
</g>
<g stroke-width="0.3" stroke-opacity="0.85" stroke="#FFFEFE" fill-opacity="0.0" fill="None"><path d="M 180.00 3.00 &#10;C 171.81 0.51 174.00 9.91 174.00 15.00 C 174.00 20.09 171.86 29.54 180.00 27.00&#10;C 180.00 24.00 180.00 21.00 180.00 18.00&#10;C 183.00 18.00 186.00 18.00 189.00 18.00&#10;C 188.59 22.82 188.14 29.22 195.00 27.00&#10;C 192.72 19.25 200.87 0.82 188.00 3.00&#10;C 189.84 5.93 188.68 9.66 189.00 13.00&#10;C 186.00 13.00 183.00 13.00 180.00 13.00&#10;C 180.00 9.67 180.00 6.33 180.00 3.00 Z"/>
</g>
<g stroke-width="0.3" stroke-opacity="0.00" stroke="#000000" fill-opacity="0.0" fill="None"><path d="M 152.00 10.00 &#10;C 151.73 9.82 149.34 9.14 149.00 9.00&#10;C 144.95 5.26 144.36 11.99 145.00 15.00&#10;C 147.62 16.32 154.98 13.17 152.00 10.00 Z"/>
</g>
<g stroke-width="0.3" stroke-opacity="0.01" stroke="#FEFF7F" fill-opacity="0.0" fill="None"><path d="M 152.00 10.00 &#10;C 150.84 8.77 150.63 9.38 149.00 9.00&#10;C 149.34 9.14 151.73 9.82 152.00 10.00 Z"/>
</g>
<g stroke-width="0.3" stroke-opacity="1.00" stroke="#FEF4EF" fill-opacity="0.0" fill="None"><path d="M 39.00 36.00 &#10;C 34.72 27.13 29.44 18.17 24.00 10.00&#10;C 18.64 18.14 13.48 27.27 9.00 36.00&#10;C 14.00 36.00 19.00 36.00 24.00 36.00&#10;C 24.72 32.41 29.25 28.50 24.00 26.00&#10;C 23.00 28.93 20.60 31.99 17.00 31.00&#10;C 18.75 26.87 21.03 22.39 24.00 19.00&#10;C 26.75 22.44 29.69 26.66 31.00 31.00&#10;C 26.25 30.22 30.01 33.71 30.00 36.00&#10;C 33.00 36.00 36.00 36.00 39.00 36.00 Z"/>
</g>
<g stroke-width="0.3" stroke-opacity="0.42" stroke="#FFF0F0" fill-opacity="0.0" fill="None"><path d="M 223.00 16.00 &#10;C 223.34 15.77 224.00 16.00 224.00 16.00&#10;C 225.81 14.80 226.00 13.40 224.00 12.00&#10;C 223.12 13.29 223.08 14.47 223.00 16.00 Z"/>
</g>
<g stroke-width="0.3" stroke-opacity="0.09" stroke="#FEFFA4" fill-opacity="0.0" fill="None"><path d="M 77.00 15.00 &#10;C 78.44 15.06 79.28 17.23 78.00 18.00&#10;C 81.26 18.13 78.41 12.95 77.00 15.00 Z"/>
</g>
<g stroke-width="0.3" stroke-opacity="0.00" stroke="#000000" fill-opacity="0.0" fill="None"><path d="M 78.00 18.00 &#10;C 79.28 17.23 78.44 15.06 77.00 15.00&#10;C 76.55 15.66 75.87 19.28 78.00 18.00 Z"/>
</g>
<g stroke-width="0.3" stroke-opacity="0.00" stroke="#000000" fill-opacity="0.0" fill="None"><path d="M 223.00 18.00 &#10;C 223.80 18.91 226.42 16.36 226.00 16.00&#10;C 225.67 15.76 224.50 16.00 224.00 16.00&#10;C 224.00 16.00 223.34 15.77 223.00 16.00&#10;C 222.97 16.50 223.07 17.51 223.00 18.00 Z"/>
</g>
<g stroke-width="0.3" stroke-opacity="0.59" stroke="#FEFFF1" fill-opacity="0.0" fill="None"><path d="M 223.00 18.00 &#10;C 221.03 19.52 226.04 18.89 227.00 19.00&#10;C 227.07 17.66 227.04 16.75 226.00 16.00&#10;C 226.42 16.36 223.80 18.91 223.00 18.00 Z"/>
</g>
<g stroke-width="0.3" stroke-opacity="0.46" stroke="#F07934" fill-opacity="0.0" fill="None"><path d="M 0.00 21.00 &#10;C 1.68 20.49 0.84 18.29 1.00 17.00&#10;C 1.00 17.00 0.50 17.00 0.00 17.00&#10;L 0.00 21.00 Z"/>
</g>
<g stroke-width="0.3" stroke-opacity="0.58" stroke="#F07A34" fill-opacity="0.0" fill="None"><path d="M 0.00 30.00 &#10;C 1.42 29.81 1.28 27.22 0.00 27.00&#10;L 0.00 30.00 Z"/>
</g>
<g stroke-width="0.3" stroke-opacity="0.00" stroke="#000000" fill-opacity="0.0" fill="None"><path d="M 0.00 48.00 &#10;L 13.00 48.00&#10;C 13.17 47.67 13.65 47.11 14.00 47.00&#10;C 6.86 45.38 1.93 35.77 0.00 31.00&#10;L 0.00 48.00 Z"/>
</g>
<g stroke-width="0.3" stroke-opacity="0.53" stroke="#FEFFF7" fill-opacity="0.0" fill="None"><path d="M 102.00 40.00 &#10;C 94.29 39.04 98.21 50.92 105.00 47.00&#10;C 103.21 44.65 98.77 43.91 102.00 40.00 Z"/>
</g>
<g stroke-width="0.3" stroke-opacity="0.53" stroke="#F2F0E1" fill-opacity="0.0" fill="None"><path d="M 122.00 48.00 &#10;L 126.00 48.00&#10;C 126.27 46.53 128.00 47.11 129.00 47.00&#10;C 131.03 41.79 127.54 38.46 122.00 40.00&#10;C 121.09 43.29 119.80 45.62 122.00 48.00&#10;M 124.00 45.00 &#10;C 122.95 39.11 129.89 44.99 124.00 45.00 Z"/>
</g>
<g stroke-width="0.3" stroke-opacity="0.56" stroke="#FEFEF0" fill-opacity="0.0" fill="None"><path d="M 153.00 40.00 &#10;C 148.82 38.90 147.65 43.20 146.00 46.00&#10;C 149.03 47.72 151.78 45.63 155.00 47.00&#10;C 153.29 44.56 153.60 42.57 153.00 40.00 Z"/>
</g>
<g stroke-width="0.3" stroke-opacity="0.64" stroke="#FEFFFC" fill-opacity="0.0" fill="None"><path d="M 174.00 47.00 &#10;C 174.86 45.19 177.75 45.76 177.00 47.00&#10;C 180.62 47.04 178.39 42.22 179.00 40.00&#10;C 176.22 43.16 174.48 38.56 171.00 41.00&#10;C 172.45 43.72 171.31 45.76 174.00 47.00 Z"/>
</g>
<g stroke-width="0.3" stroke-opacity="0.54" stroke="#FFFCF4" fill-opacity="0.0" fill="None"><path d="M 198.00 48.00 &#10;L 199.00 48.00&#10;C 199.83 45.99 202.71 47.70 204.00 46.00&#10;C 204.42 35.97 193.90 41.32 198.00 48.00 Z"/>
</g>
<g stroke-width="0.3" stroke-opacity="0.00" stroke="#000000" fill-opacity="0.0" fill="None"><path d="M 124.00 45.00 &#10;C 129.89 44.99 122.95 39.11 124.00 45.00 Z"/>
</g>
<g stroke-width="0.3" stroke-opacity="0.01" stroke="#FEFF7F" fill-opacity="0.0" fill="None"><path d="M 174.00 47.00 &#10;C 174.00 47.00 174.00 47.50 174.00 48.00&#10;L 175.00 48.00&#10;C 174.97 46.74 176.42 47.23 177.00 47.00&#10;C 177.75 45.76 174.86 45.19 174.00 47.00 Z"/>
</g>
<g stroke-width="0.3" stroke-opacity="0.01" stroke="#FEFF7F" fill-opacity="0.0" fill="None"><path d="M 13.00 48.00 &#10;L 17.00 48.00&#10;C 17.00 47.50 17.00 47.00 17.00 47.00&#10;C 16.18 46.99 14.78 46.76 14.00 47.00&#10;C 13.65 47.11 13.17 47.67 13.00 48.00 Z"/>
</g>
<g stroke-width="0.3" stroke-opacity="0.46" stroke="#F07934" fill-opacity="0.0" fill="None"><path d="M 17.00 48.00 &#10;L 21.00 48.00&#10;C 20.49 46.42 18.28 47.02 17.00 47.00&#10;C 17.00 47.00 17.00 47.50 17.00 48.00 Z"/>
</g>
<g stroke-width="0.3" stroke-opacity="0.37" stroke="#B25823" fill-opacity="0.0" fill="None"><path d="M 27.00 48.00 &#10;L 32.00 48.00&#10;C 31.32 46.35 27.74 46.61 27.00 48.00 Z"/>
</g>
<g stroke="None" fill-opacity="0.00" fill="#000000">
<path d="M 0.00 17.00 &#10;C 0.50 17.00 1.00 17.00 1.00 17.00&#10;C 1.96 9.29 9.34 2.22 17.00 1.00&#10;C 17.06 0.99 17.00 0.00 17.00 0.00&#10;L 0.00 0.00&#10;L 0.00 17.00 Z"/>
</g>
<g stroke="None" fill-opacity="0.46" fill="#F07934">
<path d="M 17.00 1.00 &#10;C 18.29 0.79 20.49 1.71 21.00 0.00&#10;L 17.00 0.00&#10;C 17.00 0.00 17.06 0.99 17.00 1.00 Z"/>
</g>
<g stroke="None" fill-opacity="0.95" fill="#F17C37">
<path d="M 17.00 1.00 &#10;C 9.34 2.22 1.96 9.29 1.00 17.00&#10;C 0.84 18.29 1.68 20.49 0.00 21.00&#10;L 0.00 27.00&#10;C 1.28 27.22 1.42 29.81 0.00 30.00&#10;L 0.00 31.00&#10;C 1.93 35.77 6.86 45.38 14.00 47.00&#10;C 14.78 46.76 16.18 46.99 17.00 47.00&#10;C 18.28 47.02 20.49 46.42 21.00 48.00&#10;L 27.00 48.00&#10;C 27.74 46.61 31.32 46.35 32.00 48.00&#10;L 34.00 48.00&#10;C 53.28 38.80 53.88 6.64 31.00 0.00&#10;L 30.00 0.00&#10;C 29.78 1.28 27.19 1.42 27.00 0.00&#10;L 21.00 0.00&#10;C 20.49 1.71 18.29 0.79 17.00 1.00&#10;M 39.00 36.00 &#10;C 36.00 36.00 33.00 36.00 30.00 36.00&#10;C 30.01 33.71 26.25 30.22 31.00 31.00&#10;C 29.69 26.66 26.75 22.44 24.00 19.00&#10;C 21.03 22.39 18.75 26.87 17.00 31.00&#10;C 20.60 31.99 23.00 28.93 24.00 26.00&#10;C 29.25 28.50 24.72 32.41 24.00 36.00&#10;C 19.00 36.00 14.00 36.00 9.00 36.00&#10;C 13.48 27.27 18.64 18.14 24.00 10.00&#10;C 29.44 18.17 34.72 27.13 39.00 36.00 Z"/>
</g>
<g stroke="None" fill-opacity="0.58" fill="#F07A34">
<path d="M 30.00 0.00 &#10;L 27.00 0.00&#10;C 27.19 1.42 29.78 1.28 30.00 0.00 Z"/>
</g>
<g stroke="None" fill-opacity="0.00" fill="#000000">
<path d="M 34.00 48.00 &#10;L 122.00 48.00&#10;C 119.80 45.62 121.09 43.29 122.00 40.00&#10;C 127.54 38.46 131.03 41.79 129.00 47.00&#10;C 128.00 47.11 126.27 46.53 126.00 48.00&#10;L 174.00 48.00&#10;C 174.00 47.50 174.00 47.00 174.00 47.00&#10;C 171.31 45.76 172.45 43.72 171.00 41.00&#10;C 174.48 38.56 176.22 43.16 179.00 40.00&#10;C 178.39 42.22 180.62 47.04 177.00 47.00&#10;C 176.42 47.23 174.97 46.74 175.00 48.00&#10;L 198.00 48.00&#10;C 193.90 41.32 204.42 35.97 204.00 46.00&#10;C 202.71 47.70 199.83 45.99 199.00 48.00&#10;L 237.00 48.00&#10;L 237.00 27.00&#10;C 233.58 27.21 228.79 27.72 229.00 23.00&#10;C 226.00 23.00 223.00 23.00 220.00 23.00&#10;C 220.26 28.18 214.57 26.96 211.00 27.00&#10;C 215.85 18.97 218.38 6.35 226.00 2.00&#10;C 228.68 9.86 232.87 17.89 237.00 25.00&#10;L 237.00 0.00&#10;L 31.00 0.00&#10;C 53.88 6.64 53.28 38.80 34.00 48.00&#10;M 79.00 2.00 &#10;C 83.01 11.58 87.11 19.67 92.00 27.00&#10;C 89.28 27.17 86.33 26.39 84.00 28.00&#10;C 84.07 21.86 77.35 22.88 73.00 23.00&#10;C 73.96 28.57 68.17 26.76 64.00 27.00&#10;C 70.25 18.88 71.14 7.18 79.00 2.00&#10;M 112.00 3.00 &#10;C 112.00 9.33 112.00 15.67 112.00 22.00&#10;C 116.00 22.00 120.00 22.00 124.00 22.00&#10;C 125.25 31.30 111.68 25.30 106.00 27.00&#10;C 108.35 19.52 100.36 1.93 112.00 3.00&#10;M 145.00 20.00 &#10;C 146.03 24.78 144.51 28.57 139.00 27.00&#10;C 139.00 19.00 139.00 11.00 139.00 3.00&#10;C 145.77 2.33 156.43 2.15 158.32 9.68 C 160.21 17.21 151.80 20.89 145.00 20.00&#10;M 180.00 3.00 &#10;C 180.00 6.33 180.00 9.67 180.00 13.00&#10;C 183.00 13.00 186.00 13.00 189.00 13.00&#10;C 188.68 9.66 189.84 5.93 188.00 3.00&#10;C 200.87 0.82 192.72 19.25 195.00 27.00&#10;C 188.14 29.22 188.59 22.82 189.00 18.00&#10;C 186.00 18.00 183.00 18.00 180.00 18.00&#10;C 180.00 21.00 180.00 24.00 180.00 27.00&#10;C 171.86 29.54 174.00 20.09 174.00 15.00 C 174.00 9.91 171.81 0.51 180.00 3.00&#10;M 102.00 40.00 &#10;C 98.77 43.91 103.21 44.65 105.00 47.00&#10;C 98.21 50.92 94.29 39.04 102.00 40.00&#10;M 153.00 40.00 &#10;C 153.60 42.57 153.29 44.56 155.00 47.00&#10;C 151.78 45.63 149.03 47.72 146.00 46.00&#10;C 147.65 43.20 148.82 38.90 153.00 40.00 Z"/>
</g>
<g stroke="None" fill-opacity="0.82" fill="#FEFEFB">
<path d="M 79.00 2.00 &#10;C 71.14 7.18 70.25 18.88 64.00 27.00&#10;C 68.17 26.76 73.96 28.57 73.00 23.00&#10;C 77.35 22.88 84.07 21.86 84.00 28.00&#10;C 86.33 26.39 89.28 27.17 92.00 27.00&#10;C 87.11 19.67 83.01 11.58 79.00 2.00&#10;M 78.00 18.00 &#10;C 75.87 19.28 76.55 15.66 77.00 15.00&#10;C 78.41 12.95 81.26 18.13 78.00 18.00 Z"/>
</g>
<g stroke="None" fill-opacity="0.82" fill="#FEFEF9">
<path d="M 237.00 27.00 &#10;L 237.00 25.00&#10;C 232.87 17.89 228.68 9.86 226.00 2.00&#10;C 218.38 6.35 215.85 18.97 211.00 27.00&#10;C 214.57 26.96 220.26 28.18 220.00 23.00&#10;C 223.00 23.00 226.00 23.00 229.00 23.00&#10;C 228.79 27.72 233.58 27.21 237.00 27.00&#10;M 224.00 16.00 &#10;C 224.50 16.00 225.67 15.76 226.00 16.00&#10;C 227.04 16.75 227.07 17.66 227.00 19.00&#10;C 226.04 18.89 221.03 19.52 223.00 18.00&#10;C 223.07 17.51 222.97 16.50 223.00 16.00&#10;C 223.08 14.47 223.12 13.29 224.00 12.00&#10;C 226.00 13.40 225.81 14.80 224.00 16.00 Z"/>
</g>
<g stroke="None" fill-opacity="0.84" fill="#FFFFFF">
<path d="M 112.00 3.00 &#10;C 100.36 1.93 108.35 19.52 106.00 27.00&#10;C 111.68 25.30 125.25 31.30 124.00 22.00&#10;C 120.00 22.00 116.00 22.00 112.00 22.00&#10;C 112.00 15.67 112.00 9.33 112.00 3.00 Z"/>
</g>
<g stroke="None" fill-opacity="0.82" fill="#FFFEFD">
<path d="M 145.00 20.00 &#10;C 151.80 20.89 160.21 17.21 158.32 9.68 C 156.43 2.15 145.77 2.33 139.00 3.00&#10;C 139.00 11.00 139.00 19.00 139.00 27.00&#10;C 144.51 28.57 146.03 24.78 145.00 20.00&#10;M 149.00 9.00 &#10;C 150.63 9.38 150.84 8.77 152.00 10.00&#10;C 154.98 13.17 147.62 16.32 145.00 15.00&#10;C 144.36 11.99 144.95 5.26 149.00 9.00 Z"/>
</g>
<g stroke="None" fill-opacity="0.85" fill="#FFFEFE">
<path d="M 180.00 3.00 &#10;C 171.81 0.51 174.00 9.91 174.00 15.00 C 174.00 20.09 171.86 29.54 180.00 27.00&#10;C 180.00 24.00 180.00 21.00 180.00 18.00&#10;C 183.00 18.00 186.00 18.00 189.00 18.00&#10;C 188.59 22.82 188.14 29.22 195.00 27.00&#10;C 192.72 19.25 200.87 0.82 188.00 3.00&#10;C 189.84 5.93 188.68 9.66 189.00 13.00&#10;C 186.00 13.00 183.00 13.00 180.00 13.00&#10;C 180.00 9.67 180.00 6.33 180.00 3.00 Z"/>
</g>
<g stroke="None" fill-opacity="0.00" fill="#000000">
<path d="M 152.00 10.00 &#10;C 151.73 9.82 149.34 9.14 149.00 9.00&#10;C 144.95 5.26 144.36 11.99 145.00 15.00&#10;C 147.62 16.32 154.98 13.17 152.00 10.00 Z"/>
</g>
<g stroke="None" fill-opacity="0.01" fill="#FEFF7F">
<path d="M 152.00 10.00 &#10;C 150.84 8.77 150.63 9.38 149.00 9.00&#10;C 149.34 9.14 151.73 9.82 152.00 10.00 Z"/>
</g>
<g stroke="None" fill-opacity="1.00" fill="#FEF4EF">
<path d="M 39.00 36.00 &#10;C 34.72 27.13 29.44 18.17 24.00 10.00&#10;C 18.64 18.14 13.48 27.27 9.00 36.00&#10;C 14.00 36.00 19.00 36.00 24.00 36.00&#10;C 24.72 32.41 29.25 28.50 24.00 26.00&#10;C 23.00 28.93 20.60 31.99 17.00 31.00&#10;C 18.75 26.87 21.03 22.39 24.00 19.00&#10;C 26.75 22.44 29.69 26.66 31.00 31.00&#10;C 26.25 30.22 30.01 33.71 30.00 36.00&#10;C 33.00 36.00 36.00 36.00 39.00 36.00 Z"/>
</g>
<g stroke="None" fill-opacity="0.42" fill="#FFF0F0">
<path d="M 223.00 16.00 &#10;C 223.34 15.77 224.00 16.00 224.00 16.00&#10;C 225.81 14.80 226.00 13.40 224.00 12.00&#10;C 223.12 13.29 223.08 14.47 223.00 16.00 Z"/>
</g>
<g stroke="None" fill-opacity="0.09" fill="#FEFFA4">
<path d="M 77.00 15.00 &#10;C 78.44 15.06 79.28 17.23 78.00 18.00&#10;C 81.26 18.13 78.41 12.95 77.00 15.00 Z"/>
</g>
<g stroke="None" fill-opacity="0.00" fill="#000000">
<path d="M 78.00 18.00 &#10;C 79.28 17.23 78.44 15.06 77.00 15.00&#10;C 76.55 15.66 75.87 19.28 78.00 18.00 Z"/>
</g>
<g stroke="None" fill-opacity="0.00" fill="#000000">
<path d="M 223.00 18.00 &#10;C 223.80 18.91 226.42 16.36 226.00 16.00&#10;C 225.67 15.76 224.50 16.00 224.00 16.00&#10;C 224.00 16.00 223.34 15.77 223.00 16.00&#10;C 222.97 16.50 223.07 17.51 223.00 18.00 Z"/>
</g>
<g stroke="None" fill-opacity="0.59" fill="#FEFFF1">
<path d="M 223.00 18.00 &#10;C 221.03 19.52 226.04 18.89 227.00 19.00&#10;C 227.07 17.66 227.04 16.75 226.00 16.00&#10;C 226.42 16.36 223.80 18.91 223.00 18.00 Z"/>
</g>
<g stroke="None" fill-opacity="0.46" fill="#F07934">
<path d="M 0.00 21.00 &#10;C 1.68 20.49 0.84 18.29 1.00 17.00&#10;C 1.00 17.00 0.50 17.00 0.00 17.00&#10;L 0.00 21.00 Z"/>
</g>
<g stroke="None" fill-opacity="0.58" fill="#F07A34">
<path d="M 0.00 30.00 &#10;C 1.42 29.81 1.28 27.22 0.00 27.00&#10;L 0.00 30.00 Z"/>
</g>
<g stroke="None" fill-opacity="0.00" fill="#000000">
<path d="M 0.00 48.00 &#10;L 13.00 48.00&#10;C 13.17 47.67 13.65 47.11 14.00 47.00&#10;C 6.86 45.38 1.93 35.77 0.00 31.00&#10;L 0.00 48.00 Z"/>
</g>
<g stroke="None" fill-opacity="0.53" fill="#FEFFF7">
<path d="M 102.00 40.00 &#10;C 94.29 39.04 98.21 50.92 105.00 47.00&#10;C 103.21 44.65 98.77 43.91 102.00 40.00 Z"/>
</g>
<g stroke="None" fill-opacity="0.53" fill="#F2F0E1">
<path d="M 122.00 48.00 &#10;L 126.00 48.00&#10;C 126.27 46.53 128.00 47.11 129.00 47.00&#10;C 131.03 41.79 127.54 38.46 122.00 40.00&#10;C 121.09 43.29 119.80 45.62 122.00 48.00&#10;M 124.00 45.00 &#10;C 122.95 39.11 129.89 44.99 124.00 45.00 Z"/>
</g>
<g stroke="None" fill-opacity="0.56" fill="#FEFEF0">
<path d="M 153.00 40.00 &#10;C 148.82 38.90 147.65 43.20 146.00 46.00&#10;C 149.03 47.72 151.78 45.63 155.00 47.00&#10;C 153.29 44.56 153.60 42.57 153.00 40.00 Z"/>
</g>
<g stroke="None" fill-opacity="0.64" fill="#FEFFFC">
<path d="M 174.00 47.00 &#10;C 174.86 45.19 177.75 45.76 177.00 47.00&#10;C 180.62 47.04 178.39 42.22 179.00 40.00&#10;C 176.22 43.16 174.48 38.56 171.00 41.00&#10;C 172.45 43.72 171.31 45.76 174.00 47.00 Z"/>
</g>
<g stroke="None" fill-opacity="0.54" fill="#FFFCF4">
<path d="M 198.00 48.00 &#10;L 199.00 48.00&#10;C 199.83 45.99 202.71 47.70 204.00 46.00&#10;C 204.42 35.97 193.90 41.32 198.00 48.00 Z"/>
</g>
<g stroke="None" fill-opacity="0.00" fill="#000000">
<path d="M 124.00 45.00 &#10;C 129.89 44.99 122.95 39.11 124.00 45.00 Z"/>
</g>
<g stroke="None" fill-opacity="0.01" fill="#FEFF7F">
<path d="M 174.00 47.00 &#10;C 174.00 47.00 174.00 47.50 174.00 48.00&#10;L 175.00 48.00&#10;C 174.97 46.74 176.42 47.23 177.00 47.00&#10;C 177.75 45.76 174.86 45.19 174.00 47.00 Z"/>
</g>
<g stroke="None" fill-opacity="0.01" fill="#FEFF7F">
<path d="M 13.00 48.00 &#10;L 17.00 48.00&#10;C 17.00 47.50 17.00 47.00 17.00 47.00&#10;C 16.18 46.99 14.78 46.76 14.00 47.00&#10;C 13.65 47.11 13.17 47.67 13.00 48.00 Z"/>
</g>
<g stroke="None" fill-opacity="0.46" fill="#F07934">
<path d="M 17.00 48.00 &#10;L 21.00 48.00&#10;C 20.49 46.42 18.28 47.02 17.00 47.00&#10;C 17.00 47.00 17.00 47.50 17.00 48.00 Z"/>
</g>
<g stroke="None" fill-opacity="0.37" fill="#B25823">
<path d="M 27.00 48.00 &#10;L 32.00 48.00&#10;C 31.32 46.35 27.74 46.61 27.00 48.00 Z"/>
</g>
</svg>